<svg xmlns="http://www.w3.org/2000/svg" xmlns:xlink="http://www.w3.org/1999/xlink" zoomAndPan="magnify" viewBox="-100 -100 950 950" preserveAspectRatio="xMidYMid meet" version="1.0"><defs><g/><clipPath id="d4a6d8a4fb"><rect x="0" width="502" y="0" height="166"/></clipPath></defs><rect x="-75" width="900" fill="#ffffff" y="-74.999999" height="899.999994" fill-opacity="1"/><rect x="-75" width="900" fill="#ffffff" y="-74.999999" height="899.999994" fill-opacity="1"/><g transform="matrix(1, 0, 0, 1, 124, 292)"><g clip-path="url(#d4a6d8a4fb)"><g fill="#434343" fill-opacity="1"><g transform="translate(1.179552, 116.6119)"><g><path d="M 45.34375 0 L 45.46875 -2.453125 L 79.265625 -81.609375 L 92.21875 -81.609375 L 92.21875 -79.15625 L 58.40625 0 Z M 8.515625 0 L 8.515625 -81.609375 L 21.921875 -81.609375 L 21.921875 0 Z M 45.46875 0 L 11.546875 -79.15625 L 11.546875 -81.609375 L 24.59375 -81.609375 L 58.40625 -2.453125 L 58.40625 0 Z M 81.84375 0 L 81.84375 -81.609375 L 95.25 -81.609375 L 95.25 0 Z M 81.84375 0 "/></g></g></g><g fill="#434343" fill-opacity="1"><g transform="translate(105.040692, 116.6119)"><g><path d="M 34.625 1.75 C 28.632812 1.75 23.363281 0.429688 18.8125 -2.203125 C 14.269531 -4.847656 10.71875 -8.503906 8.15625 -13.171875 C 5.59375 -17.835938 4.3125 -23.28125 4.3125 -29.5 C 4.3125 -35.632812 5.570312 -41.050781 8.09375 -45.75 C 10.625 -50.457031 14.125 -54.113281 18.59375 -56.71875 C 23.0625 -59.320312 28.210938 -60.625 34.046875 -60.625 C 39.867188 -60.625 44.9375 -59.28125 49.25 -56.59375 C 53.5625 -53.914062 56.941406 -50.164062 59.390625 -45.34375 C 61.835938 -40.53125 63.0625 -34.894531 63.0625 -28.4375 L 63.0625 -26.234375 L 61.3125 -24.484375 L 10.609375 -24.484375 L 10.609375 -35.671875 L 57 -35.671875 L 49.890625 -32.984375 C 49.816406 -36.253906 49.0625 -39.070312 47.625 -41.4375 C 46.1875 -43.8125 44.320312 -45.640625 42.03125 -46.921875 C 39.738281 -48.203125 37.15625 -48.84375 34.28125 -48.84375 C 31.164062 -48.84375 28.328125 -48.125 25.765625 -46.6875 C 23.203125 -45.25 21.21875 -43.265625 19.8125 -40.734375 C 18.414062 -38.210938 17.71875 -35.28125 17.71875 -31.9375 L 17.71875 -27.28125 C 17.71875 -24.09375 18.472656 -21.195312 19.984375 -18.59375 C 21.503906 -15.988281 23.546875 -13.910156 26.109375 -12.359375 C 28.671875 -10.804688 31.507812 -10.03125 34.625 -10.03125 C 37.570312 -10.03125 40.269531 -10.828125 42.71875 -12.421875 C 45.164062 -14.015625 47.09375 -16.171875 48.5 -18.890625 L 49.890625 -18.890625 L 60.734375 -14.21875 C 58.398438 -9.164062 54.957031 -5.238281 50.40625 -2.4375 C 45.863281 0.351562 40.601562 1.75 34.625 1.75 Z M 34.625 1.75 "/></g></g></g><g fill="#b9c9a8" fill-opacity="1"><g transform="translate(172.304681, 116.6119)"><g><path d="M 0 23.3125 L 0 11.1875 C 4.976562 11.1875 8.59375 9.671875 10.84375 6.640625 C 13.09375 3.609375 14.21875 -1.519531 14.21875 -8.75 L 14.21875 -40.5625 L 27.28125 -42.203125 L 27.625 -41.265625 L 27.625 -6.875 L 22.390625 -12.125 L 37.65625 -12.125 L 37.65625 0 L 21.6875 0 L 27.390625 -4.203125 C 26.691406 4.578125 24.109375 11.359375 19.640625 16.140625 C 15.171875 20.921875 8.625 23.3125 0 23.3125 Z M 0 23.3125 "/></g></g></g><g fill="#b9c9a8" fill-opacity="1"><g transform="translate(209.955797, 116.6119)"><g><path d="M 66.453125 -1.171875 C 61.160156 -2.335938 55.773438 -4.066406 50.296875 -6.359375 C 44.816406 -8.648438 39.453125 -11.425781 34.203125 -14.6875 C 28.960938 -17.945312 24.007812 -21.539062 19.34375 -25.46875 C 14.6875 -29.394531 10.53125 -33.535156 6.875 -37.890625 L 16.4375 -45.578125 L 17.25 -45.578125 C 19.738281 -42.546875 22.828125 -39.28125 26.515625 -35.78125 C 30.210938 -32.289062 34.390625 -28.910156 39.046875 -25.640625 C 43.710938 -22.378906 48.6875 -19.484375 53.96875 -16.953125 C 59.257812 -14.429688 64.738281 -12.585938 70.40625 -11.421875 Z M 0 0 C -0.851562 0 -1.453125 -0.597656 -1.796875 -1.796875 C -2.148438 -3.003906 -2.328125 -4.460938 -2.328125 -6.171875 C -2.328125 -7.960938 -2.148438 -9.398438 -1.796875 -10.484375 C -1.453125 -11.578125 -0.851562 -12.125 0 -12.125 L 25.0625 -12.125 C 27.78125 -12.125 30.441406 -12.066406 33.046875 -11.953125 C 35.648438 -11.835938 37.828125 -11.703125 39.578125 -11.546875 C 41.328125 -11.390625 42.203125 -11.3125 42.203125 -11.3125 L 53.15625 -12.125 L 73.671875 -12.125 L 73.671875 -11.3125 L 70.296875 0 Z M 0 0 "/></g></g></g><g fill="#434343" fill-opacity="1"><g transform="translate(290.276098, 116.6119)"><g><path d="M 34.390625 1.75 C 28.484375 1.75 23.273438 0.429688 18.765625 -2.203125 C 14.253906 -4.847656 10.71875 -8.519531 8.15625 -13.21875 C 5.59375 -17.925781 4.3125 -23.351562 4.3125 -29.5 C 4.3125 -35.5625 5.59375 -40.941406 8.15625 -45.640625 C 10.71875 -50.335938 14.253906 -54.007812 18.765625 -56.65625 C 23.273438 -59.300781 28.484375 -60.625 34.390625 -60.625 C 40.367188 -60.625 45.613281 -59.300781 50.125 -56.65625 C 54.632812 -54.007812 58.171875 -50.335938 60.734375 -45.640625 C 63.296875 -40.941406 64.578125 -35.5625 64.578125 -29.5 C 64.578125 -23.351562 63.296875 -17.925781 60.734375 -13.21875 C 58.171875 -8.519531 54.632812 -4.847656 50.125 -2.203125 C 45.613281 0.429688 40.367188 1.75 34.390625 1.75 Z M 34.390625 -10.375 C 37.804688 -10.375 40.757812 -11.148438 43.25 -12.703125 C 45.738281 -14.253906 47.679688 -16.46875 49.078125 -19.34375 C 50.472656 -22.226562 51.171875 -25.570312 51.171875 -29.375 C 51.171875 -33.34375 50.472656 -36.742188 49.078125 -39.578125 C 47.679688 -42.410156 45.738281 -44.601562 43.25 -46.15625 C 40.757812 -47.71875 37.804688 -48.5 34.390625 -48.5 C 31.046875 -48.5 28.128906 -47.71875 25.640625 -46.15625 C 23.160156 -44.601562 21.21875 -42.410156 19.8125 -39.578125 C 18.414062 -36.742188 17.71875 -33.382812 17.71875 -29.5 C 17.71875 -25.613281 18.414062 -22.226562 19.8125 -19.34375 C 21.21875 -16.46875 23.160156 -14.253906 25.640625 -12.703125 C 28.128906 -11.148438 31.046875 -10.375 34.390625 -10.375 Z M 34.390625 -10.375 "/></g></g></g><g fill="#434343" fill-opacity="1"><g transform="translate(359.167156, 116.6119)"><g><path d="M 34.390625 1.75 C 28.484375 1.75 23.273438 0.429688 18.765625 -2.203125 C 14.253906 -4.847656 10.71875 -8.519531 8.15625 -13.21875 C 5.59375 -17.925781 4.3125 -23.351562 4.3125 -29.5 C 4.3125 -35.5625 5.59375 -40.941406 8.15625 -45.640625 C 10.71875 -50.335938 14.253906 -54.007812 18.765625 -56.65625 C 23.273438 -59.300781 28.484375 -60.625 34.390625 -60.625 C 40.367188 -60.625 45.613281 -59.300781 50.125 -56.65625 C 54.632812 -54.007812 58.171875 -50.335938 60.734375 -45.640625 C 63.296875 -40.941406 64.578125 -35.5625 64.578125 -29.5 C 64.578125 -23.351562 63.296875 -17.925781 60.734375 -13.21875 C 58.171875 -8.519531 54.632812 -4.847656 50.125 -2.203125 C 45.613281 0.429688 40.367188 1.75 34.390625 1.75 Z M 34.390625 -10.375 C 37.804688 -10.375 40.757812 -11.148438 43.25 -12.703125 C 45.738281 -14.253906 47.679688 -16.46875 49.078125 -19.34375 C 50.472656 -22.226562 51.171875 -25.570312 51.171875 -29.375 C 51.171875 -33.34375 50.472656 -36.742188 49.078125 -39.578125 C 47.679688 -42.410156 45.738281 -44.601562 43.25 -46.15625 C 40.757812 -47.71875 37.804688 -48.5 34.390625 -48.5 C 31.046875 -48.5 28.128906 -47.71875 25.640625 -46.15625 C 23.160156 -44.601562 21.21875 -42.410156 19.8125 -39.578125 C 18.414062 -36.742188 17.71875 -33.382812 17.71875 -29.5 C 17.71875 -25.613281 18.414062 -22.226562 19.8125 -19.34375 C 21.21875 -16.46875 23.160156 -14.253906 25.640625 -12.703125 C 28.128906 -11.148438 31.046875 -10.375 34.390625 -10.375 Z M 34.390625 -10.375 "/></g></g></g><g fill="#434343" fill-opacity="1"><g transform="translate(428.058213, 116.6119)"><g><path d="M 40.21875 1.75 C 35.863281 1.75 31.976562 0.875 28.5625 -0.875 C 25.144531 -2.625 22.285156 -4.9375 19.984375 -7.8125 C 17.691406 -10.6875 16.082031 -13.753906 15.15625 -17.015625 L 15.15625 -41.734375 C 16.082031 -45.078125 17.691406 -48.164062 19.984375 -51 C 22.285156 -53.84375 25.144531 -56.15625 28.5625 -57.9375 C 31.976562 -59.726562 35.863281 -60.625 40.21875 -60.625 C 45.582031 -60.625 50.378906 -59.28125 54.609375 -56.59375 C 58.847656 -53.914062 62.226562 -50.242188 64.75 -45.578125 C 67.28125 -40.921875 68.546875 -35.519531 68.546875 -29.375 C 68.546875 -23.3125 67.28125 -17.945312 64.75 -13.28125 C 62.226562 -8.625 58.847656 -4.953125 54.609375 -2.265625 C 50.378906 0.410156 45.582031 1.75 40.21875 1.75 Z M 7.921875 0 L 7.921875 -83.9375 L 20.984375 -85.5625 L 21.328125 -84.640625 L 21.328125 -40.6875 L 17.71875 -29.5 L 20.515625 -18.1875 L 20.515625 0 Z M 38.234375 -10.484375 C 41.578125 -10.484375 44.507812 -11.28125 47.03125 -12.875 C 49.5625 -14.46875 51.546875 -16.703125 52.984375 -19.578125 C 54.421875 -22.460938 55.140625 -25.769531 55.140625 -29.5 C 55.140625 -33.226562 54.421875 -36.507812 52.984375 -39.34375 C 51.546875 -42.175781 49.5625 -44.410156 47.03125 -46.046875 C 44.507812 -47.679688 41.578125 -48.5 38.234375 -48.5 C 34.890625 -48.5 31.914062 -47.679688 29.3125 -46.046875 C 26.707031 -44.410156 24.6875 -42.175781 23.25 -39.34375 C 21.8125 -36.507812 21.09375 -33.226562 21.09375 -29.5 C 21.09375 -25.769531 21.8125 -22.460938 23.25 -19.578125 C 24.6875 -16.703125 26.707031 -14.46875 29.3125 -12.875 C 31.914062 -11.28125 34.890625 -10.484375 38.234375 -10.484375 Z M 38.234375 -10.484375 "/></g></g></g></g></g></svg>